<?xml version="1.0" standalone="no"?>
<!DOCTYPE svg PUBLIC "-//W3C//DTD SVG 20010904//EN"
 "http://www.w3.org/TR/2001/REC-SVG-20010904/DTD/svg10.dtd">
<svg version="1.0" xmlns="http://www.w3.org/2000/svg"
 width="512.000000pt" height="512.000000pt" viewBox="0 0 512.000000 512.000000"
 preserveAspectRatio="xMidYMid meet">
<metadata>
Created by potrace 1.14, written by Peter Selinger 2001-2017
</metadata>
<g transform="translate(0.000000,512.000000) scale(0.100000,-0.100000)"
fill="#000000" stroke="none">
<path d="M2369 5116 c-2 -2 -34 -6 -70 -10 -242 -22 -563 -107 -767 -202 -40
-19 -75 -34 -79 -34 -12 0 -230 -124 -302 -173 -348 -234 -632 -540 -827 -892
-28 -49 -58 -106 -66 -125 -62 -136 -79 -175 -106 -250 -29 -81 -86 -277 -96
-330 -3 -14 -9 -50 -15 -80 -10 -55 -13 -75 -31 -205 -14 -107 -5 -502 14
-625 88 -560 334 -1048 726 -1440 373 -374 866 -630 1375 -714 50 -8 106 -18
125 -21 60 -10 491 -14 565 -5 117 14 157 20 240 36 1027 201 1845 1032 2025
2059 10 61 22 126 25 145 12 65 15 464 5 550 -18 149 -20 163 -41 270 -177
885 -820 1614 -1689 1915 -101 35 -316 90 -390 99 -25 4 -56 8 -70 11 -76 13
-135 17 -331 20 -119 2 -218 3 -220 1z"/>
</g>
</svg>
